<?xml version="1.0" standalone="no"?>
<!DOCTYPE svg PUBLIC "-//W3C//DTD SVG 20010904//EN"
 "http://www.w3.org/TR/2001/REC-SVG-20010904/DTD/svg10.dtd">
<svg version="1.0" xmlns="http://www.w3.org/2000/svg"
 width="800.000000pt" height="800.000000pt" viewBox="0 0 800.000000 800.000000"
 preserveAspectRatio="xMidYMid meet">
<metadata>
Created by potrace 1.14, written by Peter Selinger 2001-2017
</metadata>
<g transform="translate(0.000000,800.000000) scale(0.100000,-0.100000)"
fill="#000000" stroke="none">
<path d="M4656 6883 c-1 -1 -236 -5 -522 -9 -505 -6 -826 -11 -851 -13 -17 -1
-53 -38 -53 -53 0 -10 231 -13 1123 -14 617 0 1160 -3 1207 -7 306 -25 583
-118 815 -272 419 -278 700 -776 814 -1445 19 -109 22 -133 36 -255 19 -165
28 -332 28 -540 0 -164 -10 -403 -18 -428 -2 -7 -6 -41 -10 -77 -3 -36 -8 -74
-10 -85 -3 -11 -7 -37 -10 -57 -2 -21 -9 -57 -14 -80 -6 -24 -12 -54 -14 -68
-11 -58 -61 -220 -94 -304 -128 -326 -309 -559 -572 -735 -145 -98 -409 -204
-584 -235 -15 -3 -35 -7 -45 -10 -17 -5 -41 -9 -132 -20 -25 -4 -63 -9 -85
-12 -22 -4 -244 -9 -492 -11 l-453 -5 0 1664 c0 914 -3 1679 -6 1698 -28 167
-159 322 -319 379 -64 22 -173 42 -179 32 -3 -6 -1 -3851 2 -3861 3 -7 1348
-4 1472 4 137 8 217 15 260 21 19 3 55 7 80 10 25 3 56 7 70 10 14 3 43 7 65
10 22 2 83 14 135 26 52 11 104 22 114 25 123 25 385 122 506 187 79 43 182
106 190 117 3 3 25 20 50 37 55 38 180 158 242 233 95 115 187 271 251 425 26
63 91 271 101 321 3 16 14 78 25 137 11 59 23 131 26 160 3 29 8 84 12 122 15
143 6 886 -12 915 -2 3 -6 37 -10 75 -6 73 -9 92 -26 190 -41 237 -100 464
-153 590 -7 17 -28 66 -47 110 -77 183 -205 377 -343 519 -234 241 -495 385
-886 487 -118 31 -337 66 -540 86 -65 6 -1138 12 -1144 6z"/>
<path d="M2487 5924 c-1 -1 -85 -5 -187 -8 -102 -4 -201 -8 -220 -10 -19 -2
-67 -7 -105 -10 -39 -4 -81 -8 -95 -11 -14 -2 -47 -7 -75 -11 -78 -10 -92 -12
-137 -20 -24 -4 -45 -8 -48 -9 -3 -1 -32 -7 -65 -14 -185 -41 -442 -135 -560
-206 -32 -19 -60 -35 -62 -35 -3 0 -35 -21 -72 -47 -320 -226 -523 -529 -641
-956 -12 -43 -23 -88 -26 -100 -2 -12 -8 -44 -14 -72 -12 -62 -17 -95 -26
-154 -3 -25 -7 -56 -9 -69 -28 -179 -27 -763 0 -1030 81 -770 314 -1292 730
-1627 248 -200 625 -349 1015 -400 25 -3 58 -8 74 -11 33 -6 76 -10 221 -21
156 -12 1032 -8 2324 12 170 2 174 3 192 26 10 13 17 28 15 34 -1 6 -409 10
-1157 11 -635 1 -1174 4 -1198 8 -24 3 -62 8 -85 11 -170 23 -383 88 -523 158
-77 39 -229 130 -243 146 -3 4 -22 19 -43 35 -55 41 -186 171 -241 239 -242
302 -415 742 -480 1218 -4 25 -8 57 -11 70 -2 13 -6 55 -10 92 -3 37 -8 76
-10 86 -6 34 -18 316 -19 446 0 119 10 344 19 405 2 14 6 48 10 75 21 170 79
396 142 555 169 428 445 730 836 915 161 76 385 142 546 161 25 3 59 8 76 11
16 3 227 8 468 10 l437 5 1 -1664 c1 -914 1 -1667 0 -1671 -3 -16 20 -92 41
-142 77 -176 277 -307 449 -296 15 1 16 166 16 1931 0 1398 -3 1930 -11 1931
-20 1 -1238 4 -1239 3z"/>
</g>
</svg>
